<svg xmlns="http://www.w3.org/2000/svg" xmlns:xlink="http://www.w3.org/1999/xlink" version="1.1" x="0px" y="0px" viewBox="0 0 100 125" style="enable-background:new 0 0 100 100;" xml:space="preserve"><path d="M67.5,37.5h-35c-1.4,0-2.5,1.1-2.5,2.5v20c0,1.4,1.1,2.5,2.5,2.5h35c1.4,0,2.5-1.1,2.5-2.5V40C70,38.6,68.9,37.5,67.5,37.5z   M65,57.5H35v-15h30V57.5z"/><path d="M12.5,85H19l-3.2,3.2c-1,1-1,2.6,0,3.5c1,1,2.6,1,3.5,0l7.5-7.5c1-1,1-2.6,0-3.5l-7.5-7.5c-1-1-2.6-1-3.5,0  c-1,1-1,2.6,0,3.5L19,80h-6.5c-1.4,0-2.5-1.1-2.5-2.5v-55c0-1.4,1.1-2.5,2.5-2.5H30v7.5c0,1.4,1.1,2.5,2.5,2.5h35  c1.4,0,2.5-1.1,2.5-2.5v-20C70,6.1,68.9,5,67.5,5h-35C31.1,5,30,6.1,30,7.5V15H12.5C8.4,15,5,18.4,5,22.5v55C5,81.6,8.4,85,12.5,85z   M65,25H35V10h30V25z"/><path d="M87.5,15H81l3.2-3.2c1-1,1-2.6,0-3.5c-1-1-2.6-1-3.5,0l-7.5,7.5c-1,1-1,2.6,0,3.5l7.5,7.5c1,1,2.6,1,3.5,0c1-1,1-2.6,0-3.5  L81,20h6.5c1.4,0,2.5,1.1,2.5,2.5V80c0,1.4-1.1,2.5-2.5,2.5H70v-10c0-1.4-1.1-2.5-2.5-2.5h-35c-1.4,0-2.5,1.1-2.5,2.5v20  c0,1.4,1.1,2.5,2.5,2.5h35c1.4,0,2.5-1.1,2.5-2.5v-5h17.5c4.1,0,7.5-3.4,7.5-7.5V22.5C95,18.4,91.6,15,87.5,15z M35,75h30v15H35V75z  "/><text x="0" y="115" fill="#000000" font-size="5px" font-weight="bold" font-family="'Helvetica Neue', Helvetica, Arial-Unicode, Arial, Sans-serif">Created by Arthur Shlain</text><text x="0" y="120" fill="#000000" font-size="5px" font-weight="bold" font-family="'Helvetica Neue', Helvetica, Arial-Unicode, Arial, Sans-serif">from the Noun Project</text></svg>